<?xml version="1.0" encoding="UTF-8" standalone="no"?>
<svg
   class="w-auto h-full"
   viewBox="-183.3 17.8 700 1000"
   version="1.1"
   id="svg2"
   sodipodi:docname="greenLine6d.svg"
   width="700"
   height="1000"
   inkscape:version="1.3.1 (9b9bdc1480, 2023-11-25, custom)"
   xmlns:inkscape="http://www.inkscape.org/namespaces/inkscape"
   xmlns:sodipodi="http://sodipodi.sourceforge.net/DTD/sodipodi-0.dtd"
   xmlns="http://www.w3.org/2000/svg"
   xmlns:svg="http://www.w3.org/2000/svg">
  <defs
     id="defs2" />
  <sodipodi:namedview
     id="namedview2"
     pagecolor="#ffffff"
     bordercolor="#000000"
     borderopacity="0.25"
     inkscape:showpageshadow="2"
     inkscape:pageopacity="0.0"
     inkscape:pagecheckerboard="0"
     inkscape:deskcolor="#d1d1d1"
     inkscape:zoom="0.49807472"
     inkscape:cx="102.39428"
     inkscape:cy="562.16465"
     inkscape:window-width="1848"
     inkscape:window-height="920"
     inkscape:window-x="72"
     inkscape:window-y="27"
     inkscape:window-maximized="1"
     inkscape:current-layer="svg2" />
  <path
     fill="#173f35"
     d="M -183.3,1017.8 H -11.319904 V 565.46787 c 0,-29.83232 23.512734,-54.51787 51.112505,-54.51787 H 299.76582 c 26.8,0 48.6,-21.9 48.6,-48.6 V 17.8 H -183.3 Z"
     id="path1"
     sodipodi:nodetypes="ccssssccc" />
  <path
     fill="#115b38"
     d="m 387.89426,17.85 h -58.56512 v 433.4 c 0.28067,26.7 -19.92711,48.4 -45.46748,48.6 l -252.192223,-0.1 c -23.014405,-0.009 -44.625497,9.6 -60.90398,27 -16.278483,17.4 -25.259715,40.5 -25.259715,65.1 v 425.9 H 3.977305 v -415.8 c 0,-13 4.677725,-25.2 13.378293,-34.4 8.607014,-9.2 20.020664,-14.30543 32.182748,-14.3 l 223.845204,0.1 v -0.1 h 28.34702 c 47.43213,0 86.16369,-41.4 86.16369,-92.1 z"
     id="path2"
     sodipodi:nodetypes="ccccsssccscsccssc"
     style="display:inline;stroke-width:0.967236" />
</svg>
